<svg xmlns="http://www.w3.org/2000/svg" viewBox="0 0 1000 1000">
  <path d="M270 390c0-144 104-244 230-244 182 0 256 122 256 248 0 58-18 112-48 150-20-58-60-96-118-116-56-20-126-20-188 4-36 14-66 34-90 60-26-28-42-62-42-102z" fill="#5ab6d8"/>
  <path d="M268 406c34-30 78-50 126-54-16 26-24 58-24 92 0 20 2 42 8 62-56-24-96-58-110-100z" fill="#3e8fb0"/>
  <path d="M726 406c-34-30-78-50-126-54 16 26 24 58 24 92 0 20-2 42-8 62 56-24 96-58 110-100z" fill="#3e8fb0"/>
  <path d="M646 220l42 24-12 44-42-24z" fill="#f08aad"/>
</svg>

